<svg xmlns="http://www.w3.org/2000/svg" width="92.188" height="90.625" viewBox="0 0 92.188 90.625">
  <g id="Group_1" data-name="Group 1" transform="translate(-3.125 -4.688)">
    <path id="Path_1" data-name="Path 1" d="M69.531,29.688a5.469,5.469,0,1,0-5.469-5.469A5.469,5.469,0,0,0,69.531,29.688Z" fill="#d5d5d3"/>
    <path id="Path_2" data-name="Path 2" d="M79.688,39.063H76.563V34.923l-5.908-7.384,2.44-1.953,6.25,7.812a1.562,1.562,0,0,1,.342.977Z" fill="#d5d5d3"/>
    <path id="Path_3" data-name="Path 3" d="M51.563,18.75l-3.125,1.563v1.563A3.125,3.125,0,0,1,45.313,25H35.938V9.375h12.5v4.688l1.041,1.563Z" fill="#fdc8a2"/>
    <path id="Path_4" data-name="Path 4" d="M49.479,15.625H42.188V12.5h6.25v1.563Z" fill="#fdb683"/>
    <path id="Path_5" data-name="Path 5" d="M7.813,68.75H18.75v9.375H7.813Z" fill="#c7483c"/>
    <path id="Path_6" data-name="Path 6" d="M23.438,95.313A10.938,10.938,0,1,0,12.5,84.375,10.938,10.938,0,0,0,23.438,95.313Z" fill="#34507b"/>
    <path id="Path_7" data-name="Path 7" d="M23.438,89.063a4.688,4.688,0,1,0-4.687-4.687A4.688,4.688,0,0,0,23.438,89.063Z" fill="#d5d5d3"/>
    <path id="Path_8" data-name="Path 8" d="M7.813,26.563h18.75a3.125,3.125,0,0,1,3.125,3.125V51.563h-25V29.688a3.125,3.125,0,0,1,3.125-3.125Z" fill="#d65246"/>
    <path id="Path_9" data-name="Path 9" d="M9.375,37.5H12.5v9.375H9.375Z" fill="#df6257"/>
    <path id="Path_10" data-name="Path 10" d="M4.688,31.25h25v3.125h-25Z" fill="#c7483c"/>
    <path id="Path_11" data-name="Path 11" d="M60.748,79.877,70.5,70.123a4.688,4.688,0,0,0,1.373-3.314V54.688a6.25,6.25,0,0,1,6.25-6.25V56.25a7.813,7.813,0,0,0,7.813,7.813v6.25H82.452a6.25,6.25,0,0,0-4.625,2.046l-11.905,13.1A6.25,6.25,0,0,1,61.3,87.5H4.688A20.594,20.594,0,0,1,21.6,67.238l.277-.05v-6.25H48.438a5.4,5.4,0,0,1-4.64,5.35,7.334,7.334,0,0,0-6.3,7.261v.367a7.334,7.334,0,0,0,7.334,7.334h12.6A4.687,4.687,0,0,0,60.748,79.877Z" fill="#d65246"/>
    <path id="Path_12" data-name="Path 12" d="M20.368,75.7l-1.2-2.886a16,16,0,0,1,3.267-.962L23,74.925A12.854,12.854,0,0,0,20.368,75.7Z" fill="#df6257"/>
    <path id="Path_13" data-name="Path 13" d="M13.774,81.931l-2.812-1.362a15.947,15.947,0,0,1,5.344-6.2l1.764,2.58A12.818,12.818,0,0,0,13.774,81.931Z" fill="#df6257"/>
    <path id="Path_14" data-name="Path 14" d="M29.688,51.563h-25a1.562,1.562,0,0,0-1.562,1.563v1.82a3.127,3.127,0,0,0,2.566,3.076l15.9,2.891a1.479,1.479,0,0,0,.279.025h7.813a1.562,1.562,0,0,0,1.563-1.562v-6.25a1.562,1.562,0,0,0-1.562-1.562Zm-1.562,6.25H22.016L6.25,54.945v-.258H28.125Z" fill="#d5d5d3"/>
    <path id="Path_15" data-name="Path 15" d="M50,12.5H42.188v3.711a4.1,4.1,0,0,1-6.25,3.494,4.024,4.024,0,0,1-.6-.453,4.082,4.082,0,0,1-1.328-2.633l-.334-3.342a7.811,7.811,0,0,1,7.773-8.59h.742A7.812,7.812,0,0,1,50,12.5Z" fill="#d65246"/>
    <path id="Path_16" data-name="Path 16" d="M35.938,46.875V50a4.687,4.687,0,0,0,4.688,4.688H56.25L48.438,75H56.25l7.344-17.679a7.55,7.55,0,0,0-6.973-10.446Z" fill="#7a432a"/>
    <path id="Path_17" data-name="Path 17" d="M54.688,35.938,45.313,25H35.938V46.875h12.5V39.063l1.752,1.752A4.687,4.687,0,0,0,53.5,42.188H68.75v-6.25Z" fill="#d65246"/>
    <path id="Path_18" data-name="Path 18" d="M71.875,48.438h12.5V37.5H81.619a5.653,5.653,0,0,0-5.056,3.125l-4.687,1.563Z" fill="#d65246"/>
    <path id="Path_19" data-name="Path 19" d="M95.313,84.375a10.931,10.931,0,1,1-.111-1.562A10.931,10.931,0,0,1,95.313,84.375Z" fill="#34507b"/>
    <path id="Path_20" data-name="Path 20" d="M95.2,82.813H82.813l-6.187,9.281A10.937,10.937,0,1,1,95.2,82.813Z" fill="#2f486e"/>
    <path id="Path_21" data-name="Path 21" d="M88.867,84.375a4.692,4.692,0,1,1-.27-1.562A4.61,4.61,0,0,1,88.867,84.375Z" fill="#cececc"/>
    <path id="Path_22" data-name="Path 22" d="M88.6,82.813H82.813l-2.65,3.975A4.686,4.686,0,1,1,88.6,82.813Z" fill="#c6c6c4"/>
    <path id="Path_23" data-name="Path 23" d="M77.344,81.865l4.785,4.785a2.9,2.9,0,1,0,4.1-4.1l-4.785-4.785Z" fill="#d5d5d3"/>
    <path id="Path_24" data-name="Path 24" d="M70.313,89.063h6.25l6.25-9.375h12.5a9.375,9.375,0,0,0-9.375-9.375H82.813a12.5,12.5,0,0,0-12.5,12.5Z" fill="#d65246"/>
    <path id="Path_25" data-name="Path 25" d="M68.75,35.938v6.25l3.125,1.563v3.125h6.25V39.063Z" fill="#fdc8a2"/>
    <path id="Path_26" data-name="Path 26" d="M71.875,48.438a3.125,3.125,0,1,0-3.125-3.125A3.125,3.125,0,0,0,71.875,48.438Z" fill="#34507b"/>
    <path id="Path_27" data-name="Path 27" d="M21.875,65.625H32.813V68.75H21.875Z" fill="#c7483c"/>
    <path id="Path_28" data-name="Path 28" d="M54.308,84.375H25V81.25H57.433a4.687,4.687,0,0,0,3.314-1.373l.19-.19L57.623,83A4.687,4.687,0,0,1,54.308,84.375Z" fill="#c7483c"/>
    <path id="Path_29" data-name="Path 29" d="M82.813,68.75A14.082,14.082,0,0,0,68.949,80.469h3.181a10.955,10.955,0,0,1,10.682-8.594h3.125V68.75Z" fill="#c7483c"/>
    <path id="Path_30" data-name="Path 30" d="M45.313,54.688h-12.5a3.125,3.125,0,0,0,0,6.25h12.5a3.125,3.125,0,0,0,0-6.25Z" fill="#34507b"/>
    <path id="Path_31" data-name="Path 31" d="M48.438,39.331l-5.145-5.145-2.21,2.21,7.355,7.355Z" fill="#c7483c"/>
    <path id="Path_32" data-name="Path 32" d="M48.438,75h9.375a3.125,3.125,0,0,1,0,6.25H48.438Z" fill="#d5d5d3"/>
  </g>
</svg>
